G04 MADE WITH FRITZING*
G04 WWW.FRITZING.ORG*
G04 DOUBLE SIDED*
G04 HOLES PLATED*
G04 CONTOUR ON CENTER OF CONTOUR VECTOR*
%ASAXBY*%
%FSLAX23Y23*%
%MOIN*%
%OFA0B0*%
%SFA1.0B1.0*%
%ADD10C,0.075000*%
%ADD11C,0.078000*%
%ADD12C,0.138425*%
%ADD13C,0.070000*%
%ADD14C,0.073889*%
%ADD15C,0.066195*%
%ADD16C,0.066222*%
%ADD17R,0.078000X0.078000*%
%ADD18R,0.070000X0.070000*%
%ADD19C,0.048000*%
%LNCOPPER1*%
G90*
G70*
G54D10*
X2401Y2750D03*
X2401Y3150D03*
G54D11*
X2401Y2450D03*
X2401Y2350D03*
X2401Y2250D03*
X2401Y2150D03*
X3301Y3550D03*
X3301Y3450D03*
X3301Y3350D03*
G54D12*
X2326Y3950D03*
G54D13*
X2901Y3450D03*
X2301Y3450D03*
X2401Y3450D03*
G54D12*
X2876Y3950D03*
G54D13*
X2501Y3450D03*
X2601Y3450D03*
X2701Y3450D03*
X2801Y3450D03*
G54D14*
X3301Y2450D03*
X3201Y2450D03*
X3101Y2450D03*
X3001Y2450D03*
G54D10*
X2201Y2950D03*
X2201Y3350D03*
G54D15*
X2051Y2240D03*
X2051Y2140D03*
X2051Y2040D03*
X2051Y1940D03*
X2051Y1840D03*
G54D16*
X3951Y2700D03*
X3951Y2800D03*
X3951Y2900D03*
X3951Y3000D03*
X3951Y3100D03*
X3951Y3200D03*
X3951Y3300D03*
X3951Y3400D03*
X3951Y3500D03*
X3951Y3600D03*
X3951Y1840D03*
X3951Y1940D03*
X3951Y2040D03*
X3951Y2140D03*
X3951Y2240D03*
X3951Y2340D03*
X3951Y2440D03*
X3951Y2540D03*
G54D15*
X2051Y3140D03*
X2051Y3240D03*
X2051Y3040D03*
X2051Y2940D03*
X2051Y2840D03*
X2051Y2740D03*
X2051Y2640D03*
X2051Y2540D03*
X2051Y2340D03*
G54D17*
X2401Y2450D03*
X3301Y3550D03*
G54D18*
X2301Y3450D03*
G54D19*
X2201Y2849D02*
X2081Y2842D01*
D02*
X2201Y2921D02*
X2201Y2849D01*
D02*
X2301Y2599D02*
X2080Y2635D01*
D02*
X2370Y2150D02*
X2301Y2151D01*
D02*
X2301Y2151D02*
X2301Y2599D01*
D02*
X2429Y3150D02*
X2550Y3151D01*
D02*
X2201Y2225D02*
X2201Y2050D01*
D02*
X2201Y2050D02*
X2700Y2050D01*
D02*
X2081Y2237D02*
X2201Y2225D01*
D02*
X2551Y2250D02*
X2431Y2250D01*
D02*
X2550Y3151D02*
X2551Y2250D01*
D02*
X3300Y3050D02*
X3300Y3320D01*
D02*
X2700Y3050D02*
X3300Y3050D01*
D02*
X2700Y2050D02*
X2700Y3050D01*
D02*
X3920Y2040D02*
X3100Y2051D01*
D02*
X3100Y2051D02*
X3101Y2416D01*
D02*
X3600Y3300D02*
X3920Y3300D01*
D02*
X3600Y3450D02*
X3600Y3300D01*
D02*
X3331Y3450D02*
X3600Y3450D01*
D02*
X2401Y3250D02*
X2401Y3419D01*
D02*
X3100Y3450D02*
X3100Y3250D01*
D02*
X3100Y3250D02*
X2401Y3250D01*
D02*
X3270Y3450D02*
X3100Y3450D01*
G04 End of Copper1*
M02*