G04 MADE WITH FRITZING*
G04 WWW.FRITZING.ORG*
G04 DOUBLE SIDED*
G04 HOLES PLATED*
G04 CONTOUR ON CENTER OF CONTOUR VECTOR*
%ASAXBY*%
%FSLAX23Y23*%
%MOIN*%
%OFA0B0*%
%SFA1.0B1.0*%
%ADD10C,0.085000*%
%ADD11C,0.088000*%
%ADD12C,0.148425*%
%ADD13C,0.080000*%
%ADD14C,0.083889*%
%ADD15C,0.076194*%
%ADD16C,0.076222*%
%ADD17R,0.088000X0.088000*%
%ADD18R,0.080000X0.080000*%
%LNMASK0*%
G90*
G70*
G54D10*
X2401Y2750D03*
X2401Y3150D03*
G54D11*
X2401Y2450D03*
X2401Y2350D03*
X2401Y2250D03*
X2401Y2150D03*
X3301Y3550D03*
X3301Y3450D03*
X3301Y3350D03*
G54D12*
X2326Y3950D03*
G54D13*
X2901Y3450D03*
X2301Y3450D03*
X2401Y3450D03*
G54D12*
X2876Y3950D03*
G54D13*
X2501Y3450D03*
X2601Y3450D03*
X2701Y3450D03*
X2801Y3450D03*
G54D14*
X3301Y2450D03*
X3201Y2450D03*
X3101Y2450D03*
X3001Y2450D03*
G54D10*
X2201Y2950D03*
X2201Y3350D03*
G54D15*
X2051Y2240D03*
X2051Y2140D03*
X2051Y2040D03*
X2051Y1940D03*
X2051Y1840D03*
G54D16*
X3951Y2700D03*
X3951Y2800D03*
X3951Y2900D03*
X3951Y3000D03*
X3951Y3100D03*
X3951Y3200D03*
X3951Y3300D03*
X3951Y3400D03*
X3951Y3500D03*
X3951Y3600D03*
X3951Y1840D03*
X3951Y1940D03*
X3951Y2040D03*
X3951Y2140D03*
X3951Y2240D03*
X3951Y2340D03*
X3951Y2440D03*
X3951Y2540D03*
G54D15*
X2051Y3140D03*
X2051Y3240D03*
X2051Y3040D03*
X2051Y2940D03*
X2051Y2840D03*
X2051Y2740D03*
X2051Y2640D03*
X2051Y2540D03*
X2051Y2340D03*
G54D17*
X2401Y2450D03*
X3301Y3550D03*
G54D18*
X2301Y3450D03*
G04 End of Mask0*
M02*