; NON-PLATED HOLES START AT T1
; THROUGH (PLATED) HOLES START AT T100
M48
INCH
T100C0.038417
T101C0.035000
T102C0.046111
T103C0.039370
T104C0.038444
T105C0.038000
T106C0.098425
%
T100
X020505Y031401
X020505Y026401
X020505Y023400
X020505Y029400
X020505Y032401
X020505Y022401
X020505Y019400
X020505Y030401
X020505Y027401
X020505Y021401
X020505Y025401
X020505Y018400
X020505Y020400
X020505Y028400
T101
X022005Y029501
X024005Y031501
X022005Y033501
X024005Y027501
T102
X032005Y024501
X031005Y024501
X033005Y024501
X030005Y024501
T103
X023005Y034501
X025005Y034501
X026005Y034501
X028005Y034501
X027005Y034501
X024005Y034501
X029005Y034501
T104
X039505Y021401
X039505Y032001
X039505Y034001
X039505Y020400
X039505Y033001
X039505Y027001
X039505Y018400
X039505Y035001
X039505Y023400
X039505Y036001
X039505Y031001
X039505Y030001
X039505Y025401
X039505Y019400
X039505Y022401
X039505Y028000
X039505Y029001
X039505Y024400
T105
X033005Y033501
X033005Y035501
X024005Y023501
X024005Y022501
X033005Y034501
X024005Y024501
X024005Y021501
T106
X023255Y039501
X028755Y039501
T00
M30
